<?xml version="1.0" encoding="UTF-8" standalone="no"?>
<!DOCTYPE svg PUBLIC "-//W3C//DTD SVG 1.1//EN" "http://www.w3.org/Graphics/SVG/1.1/DTD/svg11.dtd">
<svg width="100%" height="100%" viewBox="0 0 761 238" version="1.1" xmlns="http://www.w3.org/2000/svg" xmlns:xlink="http://www.w3.org/1999/xlink" xml:space="preserve" xmlns:serif="http://www.serif.com/" style="fill-rule:evenodd;clip-rule:evenodd;stroke-linejoin:round;stroke-miterlimit:2;">
    <g transform="matrix(4.54478,0,0,7.76817,-4964.14,4120.93)">
        <g transform="matrix(1,0,0,1,-3.43208,0.539221)">
            <g>
                <g transform="matrix(0.231069,0,0,0.135187,960,-588.014)">
                    <path d="M692.845,543.081L712.968,561.77L620.352,614.181L692.845,543.081Z" style="fill:white;"/>
                </g>
                <g transform="matrix(0.231069,0,0,0.135187,960,-588.014)">
                    <path d="M697.821,540L719.433,519.139C719.433,519.139 739.403,530.499 748.687,535.779C749.649,536.326 750.247,537.344 750.258,538.45C750.269,539.557 749.691,540.585 748.74,541.151C739.118,546.875 717.72,559.606 717.72,559.606L697.821,540" style="fill:white;"/>
                </g>
                <g transform="matrix(0.231069,0,0,0.135187,960,-588.014)">
                    <path d="M614.388,467.703L689.607,540L614.125,612.977L614.388,467.703" style="fill:white;"/>
                </g>
                <g transform="matrix(0.231069,0,0,0.135187,960,-588.014)">
                    <path d="M693.436,535.687L714.482,514.901L618.823,463.625L693.436,535.687Z" style="fill:white;"/>
                </g>
            </g>
            <g transform="matrix(0.376156,0,0,0.220071,852.459,-629.39)">
                <path d="M773.163,467.703L779.61,467.703C781.707,467.703 783.28,468.266 784.329,469.391C785.378,470.517 785.902,472.167 785.902,474.341L785.902,487.924C785.902,490.099 785.378,491.749 784.329,492.874C783.28,494 781.707,494.562 779.61,494.562L773.163,494.562L773.163,467.703ZM779.533,490.725C780.224,490.725 780.754,490.521 781.125,490.111C781.496,489.702 781.682,489.037 781.682,488.116L781.682,474.149C781.682,473.228 781.496,472.563 781.125,472.154C780.754,471.745 780.224,471.54 779.533,471.54L777.384,471.54L777.384,490.725L779.533,490.725Z" style="fill:white;fill-rule:nonzero;stroke:rgb(240,255,237);stroke-width:1px;"/>
                <path d="M794.843,494.946C792.771,494.946 791.185,494.358 790.085,493.181C788.985,492.004 788.435,490.342 788.435,488.193L788.435,474.072C788.435,471.924 788.985,470.261 790.085,469.084C791.185,467.907 792.771,467.319 794.843,467.319C796.915,467.319 798.501,467.907 799.601,469.084C800.701,470.261 801.251,471.924 801.251,474.072L801.251,488.193C801.251,490.342 800.701,492.004 799.601,493.181C798.501,494.358 796.915,494.946 794.843,494.946ZM794.843,491.109C796.301,491.109 797.03,490.226 797.03,488.461L797.03,473.804C797.03,472.039 796.301,471.156 794.843,471.156C793.385,471.156 792.656,472.039 792.656,473.804L792.656,488.461C792.656,490.226 793.385,491.109 794.843,491.109Z" style="fill:white;fill-rule:nonzero;stroke:rgb(240,255,237);stroke-width:1px;"/>
                <path d="M803.093,467.703L807.16,467.703L809.04,488.346L809.117,488.346L811.112,467.703L815.717,467.703L817.712,488.346L817.789,488.346L819.669,467.703L823.314,467.703L820.59,494.562L815.333,494.562L813.414,476.451L813.338,476.451L811.419,494.562L805.817,494.562L803.093,467.703Z" style="fill:white;fill-rule:nonzero;stroke:rgb(240,255,237);stroke-width:1px;"/>
                <path d="M825.463,467.703L830.758,467.703L834.864,483.78L834.94,483.78L834.94,467.703L838.701,467.703L838.701,494.562L834.365,494.562L829.3,474.955L829.223,474.955L829.223,494.562L825.463,494.562L825.463,467.703Z" style="fill:white;fill-rule:nonzero;stroke:rgb(240,255,237);stroke-width:1px;"/>
                <path d="M841.847,467.703L846.068,467.703L846.068,490.725L853.013,490.725L853.013,494.562L841.847,494.562L841.847,467.703Z" style="fill:white;fill-rule:nonzero;stroke:rgb(240,255,237);stroke-width:1px;"/>
                <path d="M860.994,494.946C858.922,494.946 857.336,494.358 856.236,493.181C855.136,492.004 854.586,490.342 854.586,488.193L854.586,474.072C854.586,471.924 855.136,470.261 856.236,469.084C857.336,467.907 858.922,467.319 860.994,467.319C863.066,467.319 864.652,467.907 865.752,469.084C866.852,470.261 867.402,471.924 867.402,474.072L867.402,488.193C867.402,490.342 866.852,492.004 865.752,493.181C864.652,494.358 863.066,494.946 860.994,494.946ZM860.994,491.109C862.452,491.109 863.181,490.226 863.181,488.461L863.181,473.804C863.181,472.039 862.452,471.156 860.994,471.156C859.536,471.156 858.807,472.039 858.807,473.804L858.807,488.461C858.807,490.226 859.536,491.109 860.994,491.109Z" style="fill:white;fill-rule:nonzero;stroke:rgb(240,255,237);stroke-width:1px;"/>
                <path d="M873.426,467.703L879.144,467.703L883.518,494.562L879.297,494.562L878.53,489.229L878.53,489.306L873.733,489.306L872.966,494.562L869.052,494.562L873.426,467.703ZM878.031,485.66L876.151,472.384L876.074,472.384L874.232,485.66L878.031,485.66Z" style="fill:white;fill-rule:nonzero;stroke:rgb(240,255,237);stroke-width:1px;"/>
                <path d="M885.551,467.703L891.998,467.703C894.095,467.703 895.669,468.266 896.717,469.391C897.766,470.517 898.291,472.167 898.291,474.341L898.291,487.924C898.291,490.099 897.766,491.749 896.717,492.874C895.669,494 894.095,494.562 891.998,494.562L885.551,494.562L885.551,467.703ZM891.921,490.725C892.612,490.725 893.142,490.521 893.513,490.111C893.884,489.702 894.07,489.037 894.07,488.116L894.07,474.149C894.07,473.228 893.884,472.563 893.513,472.154C893.142,471.745 892.612,471.54 891.921,471.54L889.772,471.54L889.772,490.725L891.921,490.725Z" style="fill:white;fill-rule:nonzero;stroke:rgb(240,255,237);stroke-width:1px;"/>
                <rect x="907.269" y="467.703" width="4.221" height="26.86" style="fill:white;fill-rule:nonzero;stroke:rgb(240,255,237);stroke-width:1px;"/>
                <path d="M917.936,471.54L913.524,471.54L913.524,467.703L926.57,467.703L926.57,471.54L922.157,471.54L922.157,494.562L917.936,494.562L917.936,471.54Z" style="fill:white;fill-rule:nonzero;stroke:rgb(240,255,237);stroke-width:1px;"/>
                <path d="M940.844,494.946C938.772,494.946 937.186,494.358 936.086,493.181C934.986,492.004 934.436,490.342 934.436,488.193L934.436,474.072C934.436,471.924 934.986,470.261 936.086,469.084C937.186,467.907 938.772,467.319 940.844,467.319C942.916,467.319 944.502,467.907 945.602,469.084C946.702,470.261 947.252,471.924 947.252,474.072L947.252,488.193C947.252,490.342 946.702,492.004 945.602,493.181C944.502,494.358 942.916,494.946 940.844,494.946ZM940.844,491.109C942.302,491.109 943.031,490.226 943.031,488.461L943.031,473.804C943.031,472.039 942.302,471.156 940.844,471.156C939.386,471.156 938.657,472.039 938.657,473.804L938.657,488.461C938.657,490.226 939.386,491.109 940.844,491.109Z" style="fill:white;fill-rule:nonzero;stroke:rgb(240,255,237);stroke-width:1px;"/>
                <path d="M950.091,467.703L955.386,467.703L959.492,483.78L959.569,483.78L959.569,467.703L963.329,467.703L963.329,494.562L958.993,494.562L953.928,474.955L953.852,474.955L953.852,494.562L950.091,494.562L950.091,467.703Z" style="fill:white;fill-rule:nonzero;stroke:rgb(240,255,237);stroke-width:1px;"/>
            </g>
            <g transform="matrix(0.353243,0,0,0.206665,869.078,-627.975)">
                <path d="M789.814,594.332C785.409,594.332 782.05,593.079 779.737,590.574C777.425,588.068 776.268,584.475 776.268,579.795L776.268,549.399C776.268,544.718 777.425,541.125 779.737,538.62C782.05,536.114 785.409,534.861 789.814,534.861C794.22,534.861 797.579,536.114 799.891,538.62C802.204,541.125 803.36,544.718 803.36,549.399L803.36,554.355L794.77,554.355L794.77,548.82C794.77,545.021 793.201,543.121 790.062,543.121C786.924,543.121 785.354,545.021 785.354,548.82L785.354,580.455C785.354,584.2 786.924,586.072 790.062,586.072C793.201,586.072 794.77,584.2 794.77,580.455L794.77,569.14L790.227,569.14L790.227,560.88L803.36,560.88L803.36,579.795C803.36,584.475 802.204,588.068 799.891,590.574C797.579,593.079 794.22,594.332 789.814,594.332Z" style="fill:white;fill-rule:nonzero;stroke:rgb(240,255,237);stroke-width:1px;"/>
                <path d="M822.358,594.332C817.898,594.332 814.484,593.065 812.116,590.532C809.748,587.999 808.564,584.42 808.564,579.795L808.564,549.399C808.564,544.773 809.748,541.194 812.116,538.661C814.484,536.128 817.898,534.861 822.358,534.861C826.818,534.861 830.232,536.128 832.6,538.661C834.968,541.194 836.152,544.773 836.152,549.399L836.152,579.795C836.152,584.42 834.968,587.999 832.6,590.532C830.232,593.065 826.818,594.332 822.358,594.332ZM822.358,586.072C825.497,586.072 827.066,584.172 827.066,580.373L827.066,548.82C827.066,545.021 825.497,543.121 822.358,543.121C819.219,543.121 817.65,545.021 817.65,548.82L817.65,580.373C817.65,584.172 819.219,586.072 822.358,586.072Z" style="fill:white;fill-rule:nonzero;stroke:rgb(240,255,237);stroke-width:1px;"/>
                <path d="M855.397,594.332C850.937,594.332 847.523,593.065 845.155,590.532C842.787,587.999 841.603,584.42 841.603,579.795L841.603,549.399C841.603,544.773 842.787,541.194 845.155,538.661C847.523,536.128 850.937,534.861 855.397,534.861C859.857,534.861 863.271,536.128 865.639,538.661C868.007,541.194 869.191,544.773 869.191,549.399L869.191,579.795C869.191,584.42 868.007,587.999 865.639,590.532C863.271,593.065 859.857,594.332 855.397,594.332ZM855.397,586.072C858.536,586.072 860.105,584.172 860.105,580.373L860.105,548.82C860.105,545.021 858.536,543.121 855.397,543.121C852.258,543.121 850.689,545.021 850.689,548.82L850.689,580.373C850.689,584.172 852.258,586.072 855.397,586.072Z" style="fill:white;fill-rule:nonzero;stroke:rgb(240,255,237);stroke-width:1px;"/>
                <path d="M888.188,594.332C883.783,594.332 880.424,593.079 878.112,590.574C875.799,588.068 874.642,584.475 874.642,579.795L874.642,549.399C874.642,544.718 875.799,541.125 878.112,538.62C880.424,536.114 883.783,534.861 888.188,534.861C892.594,534.861 895.953,536.114 898.265,538.62C900.578,541.125 901.734,544.718 901.734,549.399L901.734,554.355L893.144,554.355L893.144,548.82C893.144,545.021 891.575,543.121 888.436,543.121C885.298,543.121 883.728,545.021 883.728,548.82L883.728,580.455C883.728,584.2 885.298,586.072 888.436,586.072C891.575,586.072 893.144,584.2 893.144,580.455L893.144,569.14L888.601,569.14L888.601,560.88L901.734,560.88L901.734,579.795C901.734,584.475 900.578,588.068 898.265,590.574C895.953,593.079 892.594,594.332 888.188,594.332Z" style="fill:white;fill-rule:nonzero;stroke:rgb(240,255,237);stroke-width:1px;"/>
                <path d="M907.599,535.687L916.685,535.687L916.685,585.246L931.635,585.246L931.635,593.506L907.599,593.506L907.599,535.687Z" style="fill:white;fill-rule:nonzero;stroke:rgb(240,255,237);stroke-width:1px;"/>
                <path d="M936.013,535.687L960.792,535.687L960.792,543.947L945.098,543.947L945.098,559.228L957.571,559.228L957.571,567.488L945.098,567.488L945.098,585.246L960.792,585.246L960.792,593.506L936.013,593.506L936.013,535.687Z" style="fill:white;fill-rule:nonzero;stroke:rgb(240,255,237);stroke-width:1px;"/>
                <path d="M979.211,535.687L992.592,535.687C997.107,535.687 1000.49,536.899 1002.75,539.322C1005.01,541.745 1006.14,545.296 1006.14,549.977L1006.14,555.676C1006.14,560.357 1005.01,563.908 1002.75,566.331C1000.49,568.754 997.107,569.966 992.592,569.966L988.297,569.966L988.297,593.506L979.211,593.506L979.211,535.687ZM992.592,561.706C994.079,561.706 995.194,561.293 995.937,560.467C996.681,559.641 997.052,558.237 997.052,556.254L997.052,549.399C997.052,547.416 996.681,546.012 995.937,545.186C995.194,544.36 994.079,543.947 992.592,543.947L988.297,543.947L988.297,561.706L992.592,561.706Z" style="fill:white;fill-rule:nonzero;stroke:rgb(240,255,237);stroke-width:1px;"/>
                <path d="M1011.09,535.687L1020.18,535.687L1020.18,585.246L1035.13,585.246L1035.13,593.506L1011.09,593.506L1011.09,535.687Z" style="fill:white;fill-rule:nonzero;stroke:rgb(240,255,237);stroke-width:1px;"/>
                <path d="M1046.86,535.687L1059.17,535.687L1068.58,593.506L1059.5,593.506L1057.84,582.025L1057.84,582.19L1047.52,582.19L1045.87,593.506L1037.44,593.506L1046.86,535.687ZM1056.77,574.343L1052.72,545.764L1052.56,545.764L1048.59,574.343L1056.77,574.343Z" style="fill:white;fill-rule:nonzero;stroke:rgb(240,255,237);stroke-width:1px;"/>
                <path d="M1077.5,568.892L1066.52,535.687L1076.18,535.687L1082.38,556.915L1082.54,556.915L1088.74,535.687L1097.57,535.687L1086.59,568.892L1086.59,593.506L1077.5,593.506L1077.5,568.892Z" style="fill:white;fill-rule:nonzero;stroke:rgb(240,255,237);stroke-width:1px;"/>
            </g>
        </g>
        <g transform="matrix(0.274542,0,0,0.141885,932.961,-592.354)">
            <path d="M1186.85,465.656C1186.85,451.023 1176.36,439.142 1163.43,439.142L606.45,439.142C593.524,439.142 583.029,451.023 583.029,465.656L583.029,621.534C583.029,636.168 593.524,648.048 606.45,648.048L1163.43,648.048C1176.36,648.048 1186.85,636.168 1186.85,621.534L1186.85,465.656Z" style="fill:none;stroke:rgb(240,255,237);stroke-width:5.83px;stroke-linecap:round;stroke-miterlimit:1.5;"/>
        </g>
    </g>
</svg>
