<?xml version="1.0" encoding="UTF-8" standalone="no"?>
<!DOCTYPE svg PUBLIC "-//W3C//DTD SVG 1.1//EN" "http://www.w3.org/Graphics/SVG/1.1/DTD/svg11.dtd">
<svg width="100%" height="100%" viewBox="0 0 450 275" version="1.1" xmlns="http://www.w3.org/2000/svg" xmlns:xlink="http://www.w3.org/1999/xlink" xml:space="preserve" xmlns:serif="http://www.serif.com/" style="fill-rule:evenodd;clip-rule:evenodd;stroke-linecap:round;stroke-linejoin:round;stroke-miterlimit:1.5;">
    <g transform="matrix(1,0,0,1,-389.036,-2101.75)">
        <g transform="matrix(1,0,0,1,-33836.9,-1620)">
            <path d="M34378.3,3729.25L34415.8,3761.72L34310.8,3857.7L34416.3,3954.1L34381.9,3988.44L34233.5,3857.7L34378.3,3729.25Z" style="fill:none;stroke:white;stroke-width:15px;"/>
        </g>
        <g transform="matrix(1,0,0,1,-33712.8,-1620)">
            <path d="M34378.3,3729.25L34415.8,3761.72L34310.8,3857.7L34416.3,3954.1L34381.9,3988.44L34233.5,3857.7L34378.3,3729.25Z" style="fill:none;stroke:white;stroke-width:15px;"/>
        </g>
        <g transform="matrix(1,0,0,1,-33585.2,-1620)">
            <path d="M34378.3,3729.25L34415.8,3761.72L34310.8,3857.7L34416.3,3954.1L34381.9,3988.44L34233.5,3857.7L34378.3,3729.25Z" style="fill:none;stroke:white;stroke-width:15px;"/>
        </g>
    </g>
</svg>
