<?xml version="1.0" encoding="UTF-8" standalone="no"?>
<!DOCTYPE svg PUBLIC "-//W3C//DTD SVG 1.1//EN" "http://www.w3.org/Graphics/SVG/1.1/DTD/svg11.dtd">
<svg width="100%" height="100%" viewBox="0 0 3240 3240" version="1.1" xmlns="http://www.w3.org/2000/svg" xmlns:xlink="http://www.w3.org/1999/xlink" xml:space="preserve" xmlns:serif="http://www.serif.com/" style="fill-rule:evenodd;clip-rule:evenodd;stroke-linejoin:round;stroke-miterlimit:2;">
    <g transform="matrix(1,0,0,1,-21371,0)">
        <g id="Logo-White" serif:id="Logo White" transform="matrix(1.03852,0,0,1.03852,17229.7,7421.8)">
            <rect x="3987.66" y="-7146.49" width="3119.81" height="3119.81" style="fill:none;"/>
            <g>
                <g transform="matrix(1.68476,0,0,1.68476,-19129.8,-1984.31)">
                    <path d="M14404.9,-2483.47C14365.6,-2503.78 14325.6,-2518.68 14287,-2529.48C14153.5,-2566.88 14037.4,-2554.05 14024.3,-2552.15L13989,-2546.7L13991.3,-2511.01C13998,-2404.91 14019.6,-2187.58 14159.5,-2034.09C14252.8,-1931.71 14398.1,-1856.1 14626.5,-1861.14C14872.8,-1856.6 15030.7,-1917.6 15131.8,-2015.17C15260.6,-2139.58 15298.4,-2326.15 15304.7,-2524.9L15306,-2564.67L15266.2,-2564.46C15178.5,-2563.01 15097.7,-2555.74 15024,-2536.16C14977,-2523.65 14932.7,-2506.65 14891.2,-2484.11L14891,-2484.01C14858.4,-2681.52 14739.5,-2834.38 14676.9,-2903.09L14649.7,-2932.53L14621.8,-2903.76C14501.9,-2780.17 14427.2,-2637.13 14404.9,-2483.47ZM14630.6,-1936.16C14847.9,-1933.84 14988.1,-1984.69 15077.5,-2071.25C15183.7,-2174.08 15217.1,-2325.12 15226.3,-2487.51C15160.2,-2485.98 15098.6,-2479.5 15040.9,-2466.82C14966.9,-2450.57 14899.6,-2423.84 14837.7,-2380.03C14791.7,-2347.47 14748.6,-2306.49 14707.6,-2254.33C14660.1,-2193.87 14615.2,-2120.09 14573.2,-2028.17C14590,-1997.58 14609.2,-1966.88 14630.6,-1936.16ZM14398.3,-2411.05C14354.8,-2432.86 14310.5,-2447.55 14268.3,-2457.65C14187.2,-2477.12 14114.1,-2478.91 14072.1,-2477.49C14081.1,-2374.43 14107.5,-2208.4 14217.6,-2086.82C14286.3,-2010.99 14387.9,-1953.5 14538.3,-1939.41C14437.8,-2098.39 14393.6,-2256.61 14398.1,-2406.17C14398.2,-2407.6 14398.2,-2409.02 14398.3,-2410.46L14398.3,-2411.05ZM14825.7,-2442.05C14818,-2496.28 14803.7,-2547.01 14785.3,-2593.43C14746.7,-2690.9 14691.3,-2769.47 14648.4,-2820.8C14540.2,-2697.79 14479.2,-2555.75 14474.5,-2403.83C14470.8,-2283.95 14502,-2158.19 14571.6,-2030.93C14601.6,-2128.71 14636.2,-2209.23 14677,-2275.64C14714.4,-2336.68 14756.9,-2385.32 14803.5,-2424.42C14810.8,-2430.53 14818.2,-2436.41 14825.7,-2442.05Z" style="fill:white;"/>
                </g>
                <g transform="matrix(0.962905,0,0,0.962905,323.592,-6938.09)">
                    <path d="M4076.84,2728.09C4049.53,2728.09 4024,2720.03 4000.24,2703.92C3976.48,2687.81 3957.9,2666.64 3944.52,2640.43C3931.14,2614.21 3925.54,2586.62 3927.73,2557.67L3981.8,2557.67C3981.26,2560.4 3980.98,2564.77 3980.98,2570.78C3980.98,2588.26 3985.49,2605.19 3994.5,2621.58C4003.51,2637.97 4015.39,2651.08 4030.14,2660.91C4044.89,2670.74 4060.46,2675.66 4076.84,2675.66L4116.99,2675.66C4133.92,2675.66 4149.76,2670.74 4164.51,2660.91C4179.26,2651.08 4191.14,2638.1 4200.15,2621.99C4209.16,2605.88 4213.67,2588.81 4213.67,2570.78L4213.67,2541.29C4213.67,2513.98 4204.38,2491.17 4185.81,2472.87C4167.24,2454.58 4144.3,2445.43 4116.99,2445.43L4062.91,2445.43C4038.88,2445.43 4016.49,2438.6 3995.73,2424.94C3974.97,2411.29 3958.45,2392.85 3946.16,2369.64C3933.87,2346.42 3927.73,2321.16 3927.73,2293.85C3927.73,2267.63 3934.01,2242.78 3946.57,2219.29C3959.13,2195.81 3975.79,2177.1 3996.55,2163.17C4017.31,2149.24 4039.43,2142.28 4062.91,2142.28L4130.92,2142.28C4155.5,2142.28 4178.57,2150.2 4200.15,2166.04C4221.73,2181.88 4238.52,2202.63 4250.54,2228.3C4262.56,2253.98 4267.47,2280.2 4265.29,2306.96L4212.85,2306.96C4213.4,2304.23 4213.67,2300.41 4213.67,2295.49C4213.67,2268.18 4204.25,2244.69 4185.4,2225.03C4166.56,2205.36 4143.75,2195.26 4116.99,2194.71L4076.84,2193.89C4059.91,2193.89 4044.07,2198.4 4029.32,2207.41C4014.57,2216.43 4002.83,2228.72 3994.09,2244.28C3985.35,2259.85 3980.98,2276.37 3980.98,2293.85C3980.98,2321.16 3990.27,2344.51 4008.84,2363.9C4027.41,2383.29 4050.08,2392.99 4076.84,2392.99L4130.92,2392.99C4154.4,2392.99 4176.53,2399.82 4197.28,2413.47C4218.04,2427.13 4234.7,2445.43 4247.26,2468.37C4259.82,2491.31 4266.11,2515.61 4266.11,2541.29L4266.11,2570.78C4266.11,2598.64 4259.28,2624.58 4245.62,2648.62C4231.97,2672.65 4213.81,2691.91 4191.14,2706.38C4168.47,2720.86 4143.75,2728.09 4116.99,2728.09L4076.84,2728.09Z" style="fill:white;fill-rule:nonzero;"/>
                    <path d="M4331.65,2291.39C4331.65,2264.08 4338.34,2239.09 4351.73,2216.43C4365.11,2193.76 4383.27,2175.73 4406.21,2162.35C4429.15,2148.97 4454.28,2142.28 4481.59,2142.28L4631.52,2142.28L4631.52,2197.17L4481.59,2197.17C4454.82,2197.17 4432.29,2206.18 4413.99,2224.21C4395.7,2242.23 4386.55,2264.63 4386.55,2291.39L4386.55,2427.4C4413.86,2405.01 4445.54,2393.81 4481.59,2393.81L4549.59,2393.81L4549.59,2449.52L4481.59,2449.52C4454.82,2449.52 4432.29,2458.67 4413.99,2476.97C4395.7,2495.27 4386.55,2517.8 4386.55,2544.56L4386.55,2669.1L4631.52,2669.1L4631.52,2723.99L4331.65,2723.99L4331.65,2291.39Z" style="fill:white;fill-rule:nonzero;"/>
                    <path d="M4697.07,2290.57C4697.07,2263.26 4703.22,2238.27 4715.5,2215.61C4727.79,2192.94 4744.32,2175.05 4765.07,2161.94C4785.83,2148.83 4808.77,2142.28 4833.9,2142.28L4901.9,2142.28C4927.03,2142.28 4949.97,2148.83 4970.72,2161.94C4991.48,2175.05 5008,2192.94 5020.29,2215.61C5032.58,2238.27 5038.73,2263.26 5038.73,2290.57C5038.73,2315.7 5032.86,2340.28 5021.11,2364.31C5009.37,2388.35 4993.94,2407.46 4974.82,2421.67C4994.48,2435.87 5010.05,2453.89 5021.52,2475.74C5032.99,2497.59 5038.73,2520.53 5038.73,2544.56L5038.73,2723.99L4983.01,2723.99L4983.01,2544.56C4983.01,2517.25 4974,2494.59 4955.98,2476.56C4937.95,2458.53 4915.28,2449.52 4887.97,2449.52L4847.82,2449.52C4821.06,2449.52 4798.53,2458.67 4780.23,2476.97C4761.93,2495.27 4752.78,2517.8 4752.78,2544.56L4752.78,2723.99L4697.07,2723.99L4697.07,2290.57ZM4752.78,2427.4C4777.91,2406.64 4804.95,2395.72 4833.9,2394.63L4887.97,2393.81C4910.37,2393.81 4928.66,2387.39 4942.87,2374.55C4957.07,2361.72 4967.31,2347.24 4973.59,2331.13C4979.87,2315.02 4983.01,2301.5 4983.01,2290.57C4983.01,2263.81 4973.86,2241.41 4955.57,2223.39C4937.27,2205.36 4914.74,2196.35 4887.97,2196.35L4847.82,2196.35C4821.06,2196.35 4798.53,2205.36 4780.23,2223.39C4761.93,2241.41 4752.78,2263.81 4752.78,2290.57L4752.78,2427.4Z" style="fill:white;fill-rule:nonzero;"/>
                    <path d="M5104.27,2291.39C5104.27,2264.08 5110.96,2239.09 5124.35,2216.43C5137.73,2193.76 5155.89,2175.73 5178.83,2162.35C5201.77,2148.97 5226.9,2142.28 5254.21,2142.28L5404.15,2142.28L5404.15,2197.17L5254.21,2197.17C5227.44,2197.17 5204.91,2206.18 5186.61,2224.21C5168.32,2242.23 5159.17,2264.63 5159.17,2291.39L5159.17,2427.4C5186.48,2405.01 5218.16,2393.81 5254.21,2393.81L5322.21,2393.81L5322.21,2449.52L5254.21,2449.52C5227.44,2449.52 5204.91,2458.67 5186.61,2476.97C5168.32,2495.27 5159.17,2517.8 5159.17,2544.56L5159.17,2669.1L5404.15,2669.1L5404.15,2723.99L5104.27,2723.99L5104.27,2291.39Z" style="fill:white;fill-rule:nonzero;"/>
                    <path d="M5525.4,2723.99L5469.69,2723.99L5469.69,2148.83L5520.49,2148.83L5755.63,2596.18L5755.63,2148.83L5811.35,2148.83L5811.35,2723.99L5760.55,2723.99L5525.4,2277.47L5525.4,2723.99Z" style="fill:white;fill-rule:nonzero;"/>
                    <rect x="5876.89" y="2148.83" width="54.895" height="575.164" style="fill:white;fill-rule:nonzero;"/>
                    <path d="M6148.09,2728.09C6120.78,2728.09 6095.65,2721.4 6072.71,2708.02C6049.77,2694.64 6031.47,2676.47 6017.82,2653.53C6004.16,2630.59 5997.33,2605.74 5997.33,2578.97L5997.33,2148.83L6053.05,2148.83L6053.05,2578.97C6053.05,2604.65 6062.33,2626.77 6080.9,2645.34C6099.48,2663.91 6121.87,2673.2 6148.09,2673.2L6188.24,2673.2C6215,2673.2 6237.53,2664.05 6255.83,2645.75C6274.13,2627.45 6283.28,2605.19 6283.28,2578.97L6283.28,2148.83L6338.99,2148.83L6338.99,2578.97C6338.99,2606.29 6332.3,2631.28 6318.92,2653.94C6305.54,2676.61 6287.24,2694.64 6264.02,2708.02C6240.81,2721.4 6215.55,2728.09 6188.24,2728.09L6148.09,2728.09Z" style="fill:white;fill-rule:nonzero;"/>
                    <path d="M6404.54,2291.39C6404.54,2262.44 6410.82,2236.64 6423.38,2213.97C6435.94,2191.3 6453.56,2173.68 6476.23,2161.12C6498.9,2148.56 6524.7,2142.28 6553.65,2142.28C6605,2142.28 6642.41,2161.39 6665.9,2199.63C6694.85,2161.39 6735,2142.28 6786.34,2142.28C6827.31,2142.28 6860.35,2155.93 6885.48,2183.24C6910.61,2210.55 6923.17,2246.6 6923.17,2291.39L6923.17,2723.99L6867.45,2723.99L6867.45,2291.39C6867.45,2262.99 6860.08,2240.19 6845.33,2222.98C6830.59,2205.77 6810.92,2197.17 6786.34,2197.17C6759.58,2197.17 6737.05,2206.18 6718.75,2224.21C6700.45,2242.23 6691.3,2264.63 6691.3,2291.39L6691.3,2723.99L6636.41,2723.99L6636.41,2291.39C6636.41,2262.99 6629.03,2240.19 6614.28,2222.98C6599.54,2205.77 6579.87,2197.17 6555.29,2197.17C6528.53,2197.17 6506,2206.18 6487.7,2224.21C6469.4,2242.23 6460.25,2264.63 6460.25,2291.39L6460.25,2723.99L6404.54,2723.99L6404.54,2291.39Z" style="fill:white;fill-rule:nonzero;"/>
                </g>
            </g>
        </g>
    </g>
</svg>
