<?xml version="1.0" encoding="UTF-8" standalone="no"?>
<!DOCTYPE svg PUBLIC "-//W3C//DTD SVG 1.1//EN" "http://www.w3.org/Graphics/SVG/1.1/DTD/svg11.dtd">
<svg width="100%" height="100%" viewBox="0 0 761 238" version="1.1" xmlns="http://www.w3.org/2000/svg" xmlns:xlink="http://www.w3.org/1999/xlink" xml:space="preserve" xmlns:serif="http://www.serif.com/" style="fill-rule:evenodd;clip-rule:evenodd;stroke-linecap:round;stroke-linejoin:round;stroke-miterlimit:1.5;">
    <g transform="matrix(4.54478,0,0,7.76817,-4964.14,3832.97)">
        <g>
            <g transform="matrix(0.231069,0,0,0.135187,960,-588.014)">
                <path d="M753.492,788.917C753.492,788.917 746.813,776.583 726.349,775.217C717.487,774.626 709.318,781.566 700.548,781.588C691.778,781.609 685.916,773.412 673.728,775.345C652.741,778.675 644.408,798.338 643.513,816.571C642.365,839.954 657.958,867.552 669.741,877.552C679.968,886.232 695.163,874.38 705.48,874.826C714.376,875.21 717.03,882.391 731.641,880.224C741.652,878.738 756.703,847.447 757.077,842.946C741.638,836.651 726.817,811.109 753.492,788.917Z" style="fill:white;"/>
            </g>
            <g transform="matrix(0.231069,0,0,0.135187,960,-588.014)">
                <path d="M698.526,775.05C717.552,777.769 728.515,760.231 728.27,743.291C714.328,743.307 699.581,752.699 698.526,775.05Z" style="fill:white;"/>
            </g>
            <g transform="matrix(0.376156,0,0,0.220071,852.459,-591.782)">
                <path d="M773.163,467.703L779.61,467.703C781.707,467.703 783.28,468.266 784.329,469.391C785.378,470.517 785.902,472.167 785.902,474.341L785.902,487.924C785.902,490.099 785.378,491.749 784.329,492.874C783.28,494 781.707,494.562 779.61,494.562L773.163,494.562L773.163,467.703ZM779.533,490.725C780.224,490.725 780.754,490.521 781.125,490.111C781.496,489.702 781.682,489.037 781.682,488.116L781.682,474.149C781.682,473.228 781.496,472.563 781.125,472.154C780.754,471.745 780.224,471.54 779.533,471.54L777.384,471.54L777.384,490.725L779.533,490.725Z" style="fill:white;fill-rule:nonzero;"/>
                <path d="M794.843,494.946C792.771,494.946 791.185,494.358 790.085,493.181C788.985,492.004 788.435,490.342 788.435,488.193L788.435,474.072C788.435,471.924 788.985,470.261 790.085,469.084C791.185,467.907 792.771,467.319 794.843,467.319C796.915,467.319 798.501,467.907 799.601,469.084C800.701,470.261 801.251,471.924 801.251,474.072L801.251,488.193C801.251,490.342 800.701,492.004 799.601,493.181C798.501,494.358 796.915,494.946 794.843,494.946ZM794.843,491.109C796.301,491.109 797.03,490.226 797.03,488.461L797.03,473.804C797.03,472.039 796.301,471.156 794.843,471.156C793.385,471.156 792.656,472.039 792.656,473.804L792.656,488.461C792.656,490.226 793.385,491.109 794.843,491.109Z" style="fill:white;fill-rule:nonzero;"/>
                <path d="M803.093,467.703L807.16,467.703L809.04,488.346L809.117,488.346L811.112,467.703L815.717,467.703L817.712,488.346L817.789,488.346L819.669,467.703L823.314,467.703L820.59,494.562L815.333,494.562L813.414,476.451L813.338,476.451L811.419,494.562L805.817,494.562L803.093,467.703Z" style="fill:white;fill-rule:nonzero;"/>
                <path d="M825.463,467.703L830.758,467.703L834.864,483.78L834.94,483.78L834.94,467.703L838.701,467.703L838.701,494.562L834.365,494.562L829.3,474.955L829.223,474.955L829.223,494.562L825.463,494.562L825.463,467.703Z" style="fill:white;fill-rule:nonzero;"/>
                <path d="M841.847,467.703L846.068,467.703L846.068,490.725L853.013,490.725L853.013,494.562L841.847,494.562L841.847,467.703Z" style="fill:white;fill-rule:nonzero;"/>
                <path d="M860.994,494.946C858.922,494.946 857.336,494.358 856.236,493.181C855.136,492.004 854.586,490.342 854.586,488.193L854.586,474.072C854.586,471.924 855.136,470.261 856.236,469.084C857.336,467.907 858.922,467.319 860.994,467.319C863.066,467.319 864.652,467.907 865.752,469.084C866.852,470.261 867.402,471.924 867.402,474.072L867.402,488.193C867.402,490.342 866.852,492.004 865.752,493.181C864.652,494.358 863.066,494.946 860.994,494.946ZM860.994,491.109C862.452,491.109 863.181,490.226 863.181,488.461L863.181,473.804C863.181,472.039 862.452,471.156 860.994,471.156C859.536,471.156 858.807,472.039 858.807,473.804L858.807,488.461C858.807,490.226 859.536,491.109 860.994,491.109Z" style="fill:white;fill-rule:nonzero;"/>
                <path d="M873.426,467.703L879.144,467.703L883.518,494.562L879.297,494.562L878.53,489.229L878.53,489.306L873.733,489.306L872.966,494.562L869.052,494.562L873.426,467.703ZM878.031,485.66L876.151,472.384L876.074,472.384L874.232,485.66L878.031,485.66Z" style="fill:white;fill-rule:nonzero;"/>
                <path d="M885.551,467.703L891.998,467.703C894.095,467.703 895.669,468.266 896.717,469.391C897.766,470.517 898.291,472.167 898.291,474.341L898.291,487.924C898.291,490.099 897.766,491.749 896.717,492.874C895.669,494 894.095,494.562 891.998,494.562L885.551,494.562L885.551,467.703ZM891.921,490.725C892.612,490.725 893.142,490.521 893.513,490.111C893.884,489.702 894.07,489.037 894.07,488.116L894.07,474.149C894.07,473.228 893.884,472.563 893.513,472.154C893.142,471.745 892.612,471.54 891.921,471.54L889.772,471.54L889.772,490.725L891.921,490.725Z" style="fill:white;fill-rule:nonzero;"/>
                <rect x="907.269" y="467.703" width="4.221" height="26.86" style="fill:white;fill-rule:nonzero;"/>
                <path d="M917.936,471.54L913.524,471.54L913.524,467.703L926.57,467.703L926.57,471.54L922.157,471.54L922.157,494.562L917.936,494.562L917.936,471.54Z" style="fill:white;fill-rule:nonzero;"/>
                <path d="M940.844,494.946C938.772,494.946 937.186,494.358 936.086,493.181C934.986,492.004 934.436,490.342 934.436,488.193L934.436,474.072C934.436,471.924 934.986,470.261 936.086,469.084C937.186,467.907 938.772,467.319 940.844,467.319C942.916,467.319 944.502,467.907 945.602,469.084C946.702,470.261 947.252,471.924 947.252,474.072L947.252,488.193C947.252,490.342 946.702,492.004 945.602,493.181C944.502,494.358 942.916,494.946 940.844,494.946ZM940.844,491.109C942.302,491.109 943.031,490.226 943.031,488.461L943.031,473.804C943.031,472.039 942.302,471.156 940.844,471.156C939.386,471.156 938.657,472.039 938.657,473.804L938.657,488.461C938.657,490.226 939.386,491.109 940.844,491.109Z" style="fill:white;fill-rule:nonzero;"/>
                <path d="M950.091,467.703L955.386,467.703L959.492,483.78L959.569,483.78L959.569,467.703L963.329,467.703L963.329,494.562L958.993,494.562L953.928,474.955L953.852,474.955L953.852,494.562L950.091,494.562L950.091,467.703Z" style="fill:white;fill-rule:nonzero;"/>
            </g>
            <g transform="matrix(0.353243,0,0,0.206665,869.078,-590.34)">
                <path d="M783.95,535.687L796.257,535.687L805.673,593.506L796.587,593.506L794.935,582.025L794.935,582.19L784.611,582.19L782.959,593.506L774.534,593.506L783.95,535.687ZM793.862,574.343L789.814,545.764L789.649,545.764L785.685,574.343L793.862,574.343Z" style="fill:white;fill-rule:nonzero;"/>
                <path d="M810.051,535.687L823.432,535.687C827.947,535.687 831.334,536.899 833.591,539.322C835.849,541.745 836.978,545.296 836.978,549.977L836.978,555.676C836.978,560.357 835.849,563.908 833.591,566.331C831.334,568.754 827.947,569.966 823.432,569.966L819.137,569.966L819.137,593.506L810.051,593.506L810.051,535.687ZM823.432,561.706C824.919,561.706 826.034,561.293 826.777,560.467C827.52,559.641 827.892,558.237 827.892,556.254L827.892,549.399C827.892,547.416 827.52,546.012 826.777,545.186C826.034,544.36 824.919,543.947 823.432,543.947L819.137,543.947L819.137,561.706L823.432,561.706Z" style="fill:white;fill-rule:nonzero;"/>
                <path d="M841.934,535.687L855.315,535.687C859.83,535.687 863.216,536.899 865.474,539.322C867.732,541.745 868.861,545.296 868.861,549.977L868.861,555.676C868.861,560.357 867.732,563.908 865.474,566.331C863.216,568.754 859.83,569.966 855.315,569.966L851.019,569.966L851.019,593.506L841.934,593.506L841.934,535.687ZM855.315,561.706C856.801,561.706 857.916,561.293 858.66,560.467C859.403,559.641 859.775,558.237 859.775,556.254L859.775,549.399C859.775,547.416 859.403,546.012 858.66,545.186C857.916,544.36 856.801,543.947 855.315,543.947L851.019,543.947L851.019,561.706L855.315,561.706Z" style="fill:white;fill-rule:nonzero;"/>
                <path d="M898.844,594.332C894.438,594.332 891.107,593.079 888.849,590.574C886.592,588.068 885.463,584.475 885.463,579.795L885.463,576.491L894.053,576.491L894.053,580.455C894.053,584.2 895.622,586.072 898.761,586.072C900.303,586.072 901.473,585.618 902.271,584.709C903.07,583.801 903.469,582.328 903.469,580.29C903.469,577.867 902.918,575.734 901.817,573.889C900.716,572.044 898.678,569.828 895.705,567.24C891.96,563.936 889.345,560.949 887.858,558.278C886.371,555.607 885.628,552.592 885.628,549.233C885.628,544.663 886.784,541.125 889.097,538.62C891.41,536.114 894.769,534.861 899.174,534.861C903.524,534.861 906.814,536.114 909.044,538.62C911.275,541.125 912.39,544.718 912.39,549.399L912.39,551.794L903.799,551.794L903.799,548.82C903.799,546.838 903.414,545.393 902.643,544.484C901.872,543.576 900.743,543.121 899.257,543.121C896.228,543.121 894.714,544.966 894.714,548.655C894.714,550.748 895.278,552.703 896.407,554.52C897.536,556.337 899.587,558.539 902.56,561.128C906.36,564.431 908.976,567.433 910.407,570.131C911.839,572.829 912.555,575.995 912.555,579.629C912.555,584.365 911.385,587.999 909.044,590.532C906.704,593.065 903.304,594.332 898.844,594.332Z" style="fill:white;fill-rule:nonzero;"/>
                <path d="M924.862,543.947L915.363,543.947L915.363,535.687L943.446,535.687L943.446,543.947L933.948,543.947L933.948,593.506L924.862,593.506L924.862,543.947Z" style="fill:white;fill-rule:nonzero;"/>
                <path d="M960.627,594.332C956.166,594.332 952.752,593.065 950.385,590.532C948.017,587.999 946.833,584.42 946.833,579.795L946.833,549.399C946.833,544.773 948.017,541.194 950.385,538.661C952.752,536.128 956.166,534.861 960.627,534.861C965.087,534.861 968.501,536.128 970.869,538.661C973.237,541.194 974.421,544.773 974.421,549.399L974.421,579.795C974.421,584.42 973.237,587.999 970.869,590.532C968.501,593.065 965.087,594.332 960.627,594.332ZM960.627,586.072C963.765,586.072 965.335,584.172 965.335,580.373L965.335,548.82C965.335,545.021 963.765,543.121 960.627,543.121C957.488,543.121 955.919,545.021 955.919,548.82L955.919,580.373C955.919,584.172 957.488,586.072 960.627,586.072Z" style="fill:white;fill-rule:nonzero;"/>
                <path d="M980.533,535.687L993.996,535.687C998.677,535.687 1002.09,536.775 1004.24,538.95C1006.39,541.125 1007.46,544.47 1007.46,548.986L1007.46,552.537C1007.46,558.539 1005.48,562.339 1001.51,563.936L1001.51,564.101C1003.72,564.762 1005.27,566.111 1006.18,568.148C1007.09,570.186 1007.54,572.912 1007.54,576.326L1007.54,586.485C1007.54,588.137 1007.6,589.472 1007.71,590.491C1007.82,591.51 1008.09,592.515 1008.53,593.506L999.283,593.506C998.952,592.57 998.732,591.689 998.622,590.863C998.512,590.037 998.457,588.55 998.457,586.402L998.457,575.83C998.457,573.187 998.03,571.342 997.176,570.296C996.323,569.25 994.85,568.727 992.757,568.727L989.619,568.727L989.619,593.506L980.533,593.506L980.533,535.687ZM992.923,560.467C994.74,560.467 996.103,559.999 997.011,559.063C997.92,558.126 998.374,556.557 998.374,554.355L998.374,549.894C998.374,547.802 998.002,546.287 997.259,545.351C996.516,544.415 995.345,543.947 993.748,543.947L989.619,543.947L989.619,560.467L992.923,560.467Z" style="fill:white;fill-rule:nonzero;"/>
                <path d="M1013.82,535.687L1038.6,535.687L1038.6,543.947L1022.91,543.947L1022.91,559.228L1035.38,559.228L1035.38,567.488L1022.91,567.488L1022.91,585.246L1038.6,585.246L1038.6,593.506L1013.82,593.506L1013.82,535.687Z" style="fill:white;fill-rule:nonzero;"/>
            </g>
        </g>
        <g transform="matrix(0.274542,0,0,0.141885,932.961,-555.285)">
            <path d="M1186.85,465.656C1186.85,451.023 1176.36,439.142 1163.43,439.142L606.45,439.142C593.524,439.142 583.029,451.023 583.029,465.656L583.029,621.534C583.029,636.168 593.524,648.048 606.45,648.048L1163.43,648.048C1176.36,648.048 1186.85,636.168 1186.85,621.534L1186.85,465.656Z" style="fill:none;stroke:white;stroke-width:5.83px;"/>
        </g>
    </g>
</svg>
